<?xml version="1.0" encoding="UTF-8"?><svg id="Lag_2" xmlns="http://www.w3.org/2000/svg" viewBox="0 0 64 56"><defs><style>.cls-1{fill:#fff;}</style></defs><g id="Layer_1"><g id="Folder"><path class="cls-1" d="M58.72,10H31.1v-2.63c0-1.97-.77-3.82-2.15-5.21-1.39-1.39-3.24-2.16-5.2-2.16H4.84C2.17,0,0,2.17,0,4.85V50.71c0,2.92,2.37,5.29,5.29,5.29H58.72c2.91,0,5.28-2.38,5.28-5.29V15.44c0-2.95-2.42-5.44-5.28-5.44ZM4.84,2H23.75c1.43,0,2.77,.56,3.78,1.57,1.01,1.01,1.57,2.36,1.57,3.8v2.64l-27.1,.08V4.85c0-1.57,1.27-2.84,2.84-2.84ZM62,50.71c0,1.82-1.47,3.29-3.28,3.29H5.29c-1.81,0-3.28-1.48-3.28-3.29V12.08l28-.08s.03,0,.05,0c.02,0,.03,.01,.05,.01h28.61c1.78,0,3.28,1.57,3.28,3.44V50.71Z"/><path class="cls-1" d="M30,44.99H10c-.56,0-1.01,.45-1.01,1.01s.45,1.01,1.01,1.01H30c.56,0,1.01-.45,1.01-1.01s-.45-1.01-1.01-1.01Z"/><path class="cls-1" d="M30,36.99H10c-.56,0-1.01,.45-1.01,1.01s.45,1.01,1.01,1.01H30c.56,0,1.01-.45,1.01-1.01s-.45-1.01-1.01-1.01Z"/></g></g></svg>