<?xml version="1.0" encoding="UTF-8"?><svg id="Lag_2" xmlns="http://www.w3.org/2000/svg" viewBox="0 0 994.34 584.67"><defs><style>.cls-1{fill:#fff;}.cls-2{fill:#e6e6e6;}.cls-3{fill:#dcdcdc;}.cls-4{fill:#ccc;}</style></defs><g id="Lag_1-2"><rect class="cls-1" y="582.43" width="324.03" height="2.24"/><path class="cls-1" d="M985.34,482H179.34c-4.97,0-8.99-4.03-9-9V9c0-4.97,4.03-8.99,9-9H985.34c4.97,0,8.99,4.03,9,9V473c0,4.97-4.03,8.99-9,9ZM179.34,2c-3.86,0-7,3.14-7,7V473c0,3.86,3.14,7,7,7H985.34c3.86,0,7-3.14,7-7V9c0-3.86-3.14-7-7-7H179.34Z"/><path class="cls-2" d="M498.46,350.25H243.84c-4.69,0-8.49-3.81-8.5-8.5V184.75c0-4.69,3.81-8.49,8.5-8.5h254.62c4.69,0,8.49,3.81,8.5,8.5v157c0,4.69-3.81,8.49-8.5,8.5Z"/><path class="cls-4" d="M154.1,383.11c-2.21,0-4.27-1.11-5.47-2.97l-8.02-12.39c-1.95-3.01-1.08-7.04,1.93-8.99l103.27-66.84c3.01-1.95,7.04-1.08,8.99,1.93l8.02,12.39c1.95,3.01,1.09,7.04-1.92,8.99,0,0,0,0,0,0l-103.27,66.84c-1.05,.68-2.27,1.04-3.52,1.04Z"/><path class="cls-4" d="M157.32,381.24l43.17-24.1c2.8-1.56,3.87-5.04,2.45-7.91l-10-20.09c-1.48-2.97-5.08-4.17-8.04-2.7-.35,.17-.68,.38-.99,.62l-41.13,31.72c-2.78,1.8-3.57,5.51-1.78,8.29l8.02,12.39c1.8,2.78,5.52,3.58,8.3,1.78Z"/><circle class="cls-2" cx="200.2" cy="20.24" r="7"/><circle class="cls-2" cx="220.2" cy="20.24" r="7"/><circle class="cls-2" cx="240.2" cy="20.24" r="7"/><rect class="cls-1" x="171.34" y="37" width="822" height="5"/><path class="cls-3" d="M262.21,165.25c-4.14,0-7.5,3.36-7.5,7.5v157c0,4.14,3.36,7.5,7.5,7.5h254.62c4.14,0,7.5-3.36,7.5-7.5V172.75c0-4.14-3.36-7.5-7.5-7.5h-254.62Z"/><path class="cls-2" d="M626.84,166.75c-3.04,0-5.5,2.46-5.5,5.5s2.46,5.5,5.5,5.5h297c3.04,0,5.5-2.46,5.5-5.5s-2.46-5.5-5.5-5.5h-297Z"/><path class="cls-2" d="M626.84,201.75c-3.04,0-5.5,2.46-5.5,5.5s2.46,5.5,5.5,5.5h297c3.04,0,5.5-2.46,5.5-5.5s-2.46-5.5-5.5-5.5h-297Z"/><path class="cls-2" d="M625.05,236.75c-2.05,0-3.71,2.46-3.71,5.5s1.66,5.5,3.71,5.5h200.24c2.05,0,3.71-2.46,3.71-5.5s-1.66-5.5-3.71-5.5h-200.24Z"/><path class="cls-2" d="M624.51,271.75c-1.75,0-3.17,2.46-3.17,5.5s1.42,5.5,3.17,5.5h171.32c1.75,0,3.17-2.46,3.17-5.5s-1.42-5.5-3.17-5.5h-171.32Z"/><path class="cls-2" d="M626.84,306.75c-3.04,0-5.5,2.46-5.5,5.5s2.46,5.5,5.5,5.5h297c3.04,0,5.5-2.46,5.5-5.5s-2.46-5.5-5.5-5.5h-297Z"/><path class="cls-2" d="M625.83,341.75c-2.48,0-4.49,2.46-4.49,5.5s2.01,5.5,4.49,5.5h242.67c2.48,0,4.49-2.46,4.49-5.5s-2.01-5.5-4.49-5.5h-242.67Z"/><circle class="cls-1" cx="153.12" cy="250.27" r="53.52"/><path class="cls-1" d="M144.69,583.62h-14.76c-3.59,0-6.5-2.91-6.5-6.5v-123.01c0-3.59,2.91-6.5,6.5-6.5h14.76c3.59,0,6.5,2.91,6.5,6.5v123.01c0,3.59-2.91,6.5-6.5,6.5Z"/><path class="cls-1" d="M173.88,583.62h-14.76c-3.59,0-6.5-2.91-6.5-6.5v-123.01c0-3.59,2.91-6.5,6.5-6.5h14.76c3.59,0,6.5,2.91,6.5,6.5v123.01c0,3.59-2.91,6.5-6.5,6.5Z"/><path class="cls-1" d="M186.04,468.07H118.98c-3.59,0-6.5-2.91-6.5-6.5v-113.1c.02-19.8,16.07-35.85,35.88-35.88h37.69c3.59,0,6.5,2.91,6.5,6.5v142.48c0,3.59-2.91,6.5-6.5,6.5Z"/><path class="cls-4" d="M215.04,459.24c-2.41,0-4.62-1.33-5.75-3.46l-57.67-108.66c-1.68-3.17-.47-7.1,2.7-8.79l13.04-6.92c3.17-1.68,7.1-.47,8.79,2.69l57.66,108.66c1.68,3.17,.47,7.1-2.69,8.79l-13.04,6.92c-.94,.5-1.98,.76-3.04,.76Z"/><path class="cls-4" d="M147.48,346.89l25.28,45.09c1.31,2.92,4.69,4.3,7.67,3.12l20.88-8.23c3.08-1.21,4.6-4.7,3.38-7.78-.14-.36-.32-.71-.53-1.04l-28.05-45.71c-1.56-2.92-5.18-4.03-8.11-2.49l-18.04,8.92c-2.93,1.56-4.04,5.19-2.49,8.12Z"/></g></svg>